<svg xmlns="http://www.w3.org/2000/svg" width="512" height="512" fill-rule="evenodd" clip-rule="evenodd" image-rendering="optimizeQuality" shape-rendering="geometricPrecision" text-rendering="geometricPrecision" viewBox="0 0 512 512" id="dribble"><path fill-rule="nonzero" d="M272.78 224.63c33.32,-14.43 53.1,-27.85 76.1,-56.51 24.47,28.91 32.85,50.6 34.96,88.01 -34.53,-5.66 -62.52,-7.27 -97.18,-1.31 -4.41,-10.21 -9.01,-20.19 -13.88,-30.19zm21 17.05c25.53,-3.83 51.73,-3.11 77.24,0.5 -2.4,-20.17 -9.98,-39.23 -22.15,-55.49 -16.69,18.92 -37.37,33.18 -60.18,43.78 1.72,3.73 3.43,7.45 5.09,11.21zm-1.81 26.03c32.7,-4.63 58.7,-3.22 91.01,2.4 -7.12,45.46 -25.3,71.51 -63.48,97.07 -6.58,-35.36 -14.93,-65.78 -27.53,-99.47zm35.69 79.42c21.38,-16.86 36.18,-40.69 41.74,-67.35 -20.23,-3.14 -40.87,-4.37 -61.27,-2.3 8.14,22.73 14.68,45.99 19.53,69.65zm-49.49 -76.42c13.08,34.14 22.06,66.67 28.19,102.69 -48.62,18.79 -91.79,12.15 -133,-20.01 27.43,-43.03 55.46,-67.98 104.81,-82.68zm-89.02 79.91c30.25,21.45 68.81,27.1 103.93,15.18 -4.97,-27.49 -12.32,-54.36 -22.01,-80.56 -34.99,11.8 -61.52,35.02 -81.92,65.38zm70.51 -121.17c4.63,9.43 8.99,18.84 13.24,28.42 -52.2,16.31 -80.21,41.14 -110.01,85.85 -25.99,-31.2 -35.36,-55.55 -34.36,-96.74 46.16,-0.07 86.86,-3.6 131.13,-17.53zm-119.51 29.26c0.52,23.73 7.91,46.02 21.89,65.21 24.14,-33.8 55.32,-59.41 94.75,-73.25l-3.27 -6.97c-36.42,10.75 -75.5,14.59 -113.37,15.01zm113.07 -41.6c-42.59,12.54 -78.8,15.65 -123.02,15.96 10.92,-44.69 31.45,-72.31 72.51,-93.19 19.03,24.9 35.26,49.84 50.51,77.23zm-53.86 -62.17c-25.64,14.44 -44.98,38.14 -53.86,66.21 30.12,-0.62 60.97,-3.59 90.16,-11.27 -10.97,-19.05 -23.11,-37.35 -36.3,-54.94zm67.01 57.39c-15.23,-27.91 -31.26,-52.39 -50.24,-77.9 48.36,-12.34 82.92,-6.42 122.45,24.11 -21.2,27.34 -40.76,40.48 -72.21,53.79zm55.45 -51.65c-25.13,-17.47 -55.45,-24.19 -85.59,-18.85 12.83,17.81 24.62,36.29 35.31,55.45 19.12,-8.72 36.54,-20.59 50.28,-36.6zm-65.82 -46.32c-78.23,0 -141.64,63.41 -141.64,141.64 0,78.23 63.41,141.64 141.64,141.64 78.23,0 141.64,-63.41 141.64,-141.64 0,-78.23 -63.41,-141.64 -141.64,-141.64zm0 -11.82c84.75,0 153.46,68.71 153.46,153.46 0,84.75 -68.71,153.46 -153.46,153.46 -84.75,0 -153.46,-68.71 -153.46,-153.46 0,-84.75 68.71,-153.46 153.46,-153.46z"></path></svg>